# xmcd
#
# Track frame offsets: 
#        150
#        14607
#        27850
#        41657
#        54212
#        67929
#        80646
#        96197
#        108302
#        120989
#        134671
#        149239
#        160926
#        172833
#        184447
#        197139
#        209494
#        221360
#        234280
#        248001
#        261552
#        274633
#        287058
#        300957
#        314602
#
# Disc length: 4376 seconds
#
# Revision: 0
# Processed by: cddbd v1.5.2PL0 Copyright (c) Steve Scherf et al.
# Submitted via: ExactAudioCopy v0.99pb4
#
DISCID=70111619
DTITLE=Gene Autry - Early Sides [CD2]
DYEAR=2008
DGENRE=Country
TTITLE0=That's Why I Left The Mountains
TTITLE1=Cowboy Yodel
TTITLE2=I'll Be Thinking Of You Little Gal
TTITLE3=My Rough And Rowdy Ways
TTITLE4=Whisper Your Mother's Name
TTITLE5=The Girl I Left Behind
TTITLE6=I'll Be Thinking Of You Little Gal
TTITLE7=Cowboy Yodel
TTITLE8=In The Shadow Of The Pine
TTITLE9=Hobo Yodel
TTITLE10=They Cut Down The Old Pine Tree
TTITLE11=Texas Blues
TTITLE12=Hobo Bill's Last Ride
TTITLE13=Dust Pan Blues
TTITLE14=My Carolina Sunshine Girl
TTITLE15=Train Whistle Blues
TTITLE16=Anniversary Blue Yodel (Blue Yodel No. 7)
TTITLE17=In The Jailhouse Now No. 2
TTITLE18=The Yodeling Hobo
TTITLE19=Pictures Of My Mother
TTITLE20=Blue Days
TTITLE21=He's In The Jailhouse Now - No. 2
TTITLE22=Cowboy's Yodel
TTITLE23=Dad In The Hills
TTITLE24=High Powered Mama
EXTD=
EXTT0=
EXTT1=
EXTT2=
EXTT3=
EXTT4=
EXTT5=
EXTT6=
EXTT7=
EXTT8=
EXTT9=
EXTT10=
EXTT11=
EXTT12=
EXTT13=
EXTT14=
EXTT15=
EXTT16=
EXTT17=
EXTT18=
EXTT19=
EXTT20=
EXTT21=
EXTT22=
EXTT23=
EXTT24=
PLAYORDER=
